<svg aria-hidden="true" style="position: absolute; width: 0; height: 0; overflow: hidden;" version="1.1" xmlns="http://www.w3.org/2000/svg" xmlns:xlink="http://www.w3.org/1999/xlink">
<defs>
<symbol id="credit-card-02" viewBox="0 0 32 32">
<title>credit-card-02</title>
<path fill="none" stroke="#fefeff" style="stroke: var(--color1, #fefeff)" stroke-linejoin="round" stroke-linecap="round" stroke-miterlimit="4" stroke-width="3.2" d="M29.333 13.333h-26.667M14.666 18.667h-6.667M2.666 10.933v10.133c0 1.494 0 2.24 0.291 2.811 0.256 0.502 0.664 0.91 1.165 1.165 0.57 0.291 1.317 0.291 2.811 0.291h18.133c1.493 0 2.24 0 2.811-0.291 0.502-0.256 0.91-0.664 1.165-1.165 0.291-0.57 0.291-1.317 0.291-2.811v-10.133c0-1.494 0-2.24-0.291-2.811-0.256-0.502-0.664-0.91-1.165-1.165-0.571-0.291-1.317-0.291-2.811-0.291h-18.133c-1.493 0-2.24 0-2.811 0.291-0.502 0.256-0.91 0.664-1.165 1.165-0.291 0.57-0.291 1.317-0.291 2.811z"></path>
</symbol>
<symbol id="check-circle-broken-2" viewBox="0 0 32 32">
<title>check-circle-broken-2</title>
<path fill="none" stroke="#72d38d" style="stroke: var(--color2, #72d38d)" stroke-linejoin="round" stroke-linecap="round" stroke-miterlimit="4" stroke-width="2" d="M29.334 14.781v1.227c-0.002 2.875-0.933 5.673-2.654 7.976s-4.141 3.988-6.899 4.803c-2.757 0.815-5.704 0.717-8.401-0.279s-5-2.838-6.565-5.25c-1.565-2.412-2.308-5.265-2.119-8.134s1.301-5.6 3.169-7.786c1.868-2.186 4.393-3.709 7.197-4.343s5.739-0.344 8.365 0.826M29.334 5.333l-13.333 13.347-4-4"></path>
</symbol>
<symbol id="alert-circle" viewBox="0 0 32 32">
<title>alert-circle</title>
<path fill="none" stroke="#f04438" style="stroke: var(--color3, #f04438)" stroke-linejoin="round" stroke-linecap="round" stroke-miterlimit="4" stroke-width="2" d="M16 10.666v5.333M16 21.333h0.013M29.334 16c0 7.364-5.969 13.333-13.333 13.333s-13.333-5.97-13.333-13.333c0-7.364 5.97-13.333 13.333-13.333s13.333 5.97 13.333 13.333z"></path>
</symbol>
<symbol id="Indicators-2" viewBox="0 0 32 32">
<title>Indicators-2</title>
<path fill="#c5a085" style="fill: var(--color4, #c5a085)" d="M32 16c0 8.837-7.163 16-16 16s-16-7.163-16-16c0-8.837 7.163-16 16-16s16 7.163 16 16z"></path>
<path fill="#fefeff" style="fill: var(--color1, #fefeff)" d="M23.154 10.979c0.2 0.2 0.312 0.471 0.312 0.754s-0.112 0.554-0.312 0.754l-8.533 8.533c-0.2 0.2-0.471 0.312-0.754 0.312s-0.554-0.112-0.754-0.312l-4.267-4.267c-0.194-0.201-0.302-0.471-0.299-0.75s0.115-0.547 0.312-0.745 0.465-0.31 0.745-0.312c0.28-0.002 0.549 0.105 0.75 0.299l3.512 3.513 7.779-7.779c0.2-0.2 0.471-0.312 0.754-0.312s0.554 0.112 0.754 0.312z"></path>
</symbol>
<symbol id="Ellipse-1" viewBox="0 0 32 32">
<title>Ellipse-1</title>
<path fill="#4f4f51" style="fill: var(--color5, #4f4f51)" d="M32 16c0 8.837-7.163 16-16 16s-16-7.163-16-16c0-8.837 7.163-16 16-16s16 7.163 16 16z"></path>
</symbol>
<symbol id="Indicators-1" viewBox="0 0 32 32">
<title>Indicators-1</title>
<path fill="#b68867" style="fill: var(--color6, #b68867)" opacity="0.2" d="M32 16c0 8.837-7.163 16-16 16s-16-7.163-16-16c0-8.837 7.163-16 16-16s16 7.163 16 16z"></path>
<path fill="#b68867" style="fill: var(--color6, #b68867); stroke: var(--color1, #fefeff)" stroke="#fefeff" stroke-linejoin="miter" stroke-linecap="butt" stroke-miterlimit="4" stroke-width="1.3333" d="M24.667 16c0 4.786-3.88 8.667-8.667 8.667s-8.667-3.88-8.667-8.667c0-4.786 3.88-8.667 8.667-8.667s8.667 3.88 8.667 8.667z"></path>
</symbol>
<symbol id="headphones" viewBox="0 0 32 32">
<title>headphones</title>
<path fill="none" stroke="#bdbdbe" style="stroke: var(--color7, #bdbdbe)" stroke-linejoin="round" stroke-linecap="round" stroke-miterlimit="4" stroke-width="3.2" d="M28 24v-8c0-6.627-5.373-12-12-12s-12 5.373-12 12v8M7.333 28c-1.841 0-3.333-1.492-3.333-3.333v-2.667c0-1.841 1.492-3.333 3.333-3.333s3.333 1.492 3.333 3.333v2.667c0 1.841-1.492 3.333-3.333 3.333zM24.667 28c-1.841 0-3.333-1.492-3.333-3.333v-2.667c0-1.841 1.492-3.333 3.333-3.333s3.333 1.492 3.333 3.333v2.667c0 1.841-1.492 3.333-3.333 3.333z"></path>
</symbol>
<symbol id="Icon_-additional-driver" viewBox="0 0 32 32">
<title>Icon_-additional-driver</title>
<path fill="#bdbdbe" style="fill: var(--color7, #bdbdbe)" d="M14.032 12.257c0.515 0.104 1.026 0.155 1.527 0.155 1.758 0 3.387-0.63 4.614-1.818 1.84-1.779 2.414-4.397 1.463-6.668-0.795-1.9-2.652-3.351-4.846-3.789-2.033-0.405-4.083 0.1-5.626 1.386-1.937 1.616-2.694 4.203-1.927 6.592 0.693 2.158 2.44 3.667 4.795 4.142h0.001zM11.689 5.879c0.108-1.413 1.116-2.715 2.51-3.241 0.432-0.163 0.873-0.244 1.311-0.244 0.765 0 1.523 0.245 2.216 0.727 1.196 0.832 1.779 2.272 1.525 3.761-0.235 1.37-1.151 2.46-2.451 2.916-1.455 0.51-2.566 0.118-3.241-0.302-1.225-0.761-1.977-2.215-1.869-3.617h-0.001z"></path>
<path fill="#bdbdbe" style="fill: var(--color7, #bdbdbe)" d="M19.758 13.757h-8.458c-3.636 0-6.594 2.967-6.594 6.614v3.152c0 0.776 0.649 1.404 1.449 1.404h1.745c0.098 2.050 1.072 3.96 2.721 5.304 1.418 1.156 3.176 1.77 4.984 1.77 0.499 0 1.002-0.047 1.502-0.142 3.46-0.658 6.009-3.533 6.213-6.929 0.069-0.002 0.141-0.002 0.212-0.002h0.139c0.075 0 0.15 0.001 0.227 0.003 0.048 0.001 0.098 0.001 0.148 0.002 0-0.002-0.001-0.003-0.002-0.005h0.858c0.801 0 1.449-0.628 1.449-1.404v-3.152c0-3.646-2.958-6.613-6.594-6.613v-0.002zM9.074 20.522c-0.344 0.533-0.566 1.054-0.783 1.597h-0.685v-1.749c0-2.099 1.658-3.806 3.695-3.806h8.458c2.038 0 3.695 1.707 3.695 3.806v1.749h-0.549c-0.548-1.676-1.815-3.177-3.491-4.1-1.729-0.952-3.752-1.218-5.696-0.748-1.946 0.47-3.596 1.624-4.645 3.251zM20.36 23.226h-2.172c-0.485-0.936-1.464-1.524-2.586-1.524s-2.1 0.588-2.585 1.524h-2.295c0.291-1.015 0.906-1.923 1.737-2.549 1.243-0.936 2.838-1.271 4.376-0.917 1.655 0.38 3.062 1.69 3.591 3.256-0.027 0.068-0.049 0.137-0.066 0.209v0.001zM14.25 29.255c-1.717-0.49-3.076-1.82-3.535-3.463h2.284c0.285 0.59 0.796 0.976 1.251 1.239v2.224h-0.001zM15.802 24.672c-0.018 0.028-0.067 0.103-0.272 0.079-0.156-0.019-0.174-0.165-0.175-0.228 0-0.067 0.016-0.224 0.194-0.249 0.179-0.025 0.226 0.045 0.246 0.074 0.060 0.090 0.063 0.235 0.006 0.324l0.001-0.001zM16.955 29.253v-2.216c0.453-0.255 0.962-0.636 1.251-1.244h2.284c-0.456 1.634-1.814 2.964-3.536 3.46v-0.001z"></path>
</symbol>
<symbol id="wifi" viewBox="0 0 32 32">
<title>wifi</title>
<path fill="none" stroke="#bdbdbe" style="stroke: var(--color7, #bdbdbe)" stroke-linejoin="round" stroke-linecap="round" stroke-miterlimit="4" stroke-width="3.2" d="M16 26h0.013M30.409 11.601c-3.796-3.478-8.854-5.601-14.409-5.601s-10.613 2.123-14.409 5.601M6.309 16.324c2.584-2.276 5.976-3.657 9.691-3.657s7.107 1.381 9.691 3.657M20.931 21.033c-1.359-1.065-3.071-1.7-4.931-1.7-1.889 0-3.624 0.654-4.993 1.749"></path>
</symbol>
<symbol id="navigation-pointer-01" viewBox="0 0 32 32">
<title>navigation-pointer-01</title>
<path fill="none" stroke="#bdbdbe" style="stroke: var(--color7, #bdbdbe)" stroke-linejoin="round" stroke-linecap="round" stroke-miterlimit="4" stroke-width="3.2" d="M4.552 14.326c-0.794-0.309-1.191-0.463-1.307-0.685-0.1-0.193-0.101-0.422-0-0.615 0.116-0.223 0.512-0.377 1.306-0.687l22.517-8.787c0.716-0.28 1.074-0.419 1.303-0.343 0.199 0.066 0.355 0.222 0.421 0.421 0.076 0.229-0.063 0.587-0.343 1.303l-8.787 22.517c-0.31 0.793-0.464 1.19-0.687 1.306-0.193 0.1-0.423 0.1-0.615-0-0.222-0.116-0.377-0.513-0.685-1.307l-3.504-9.011c-0.063-0.161-0.094-0.242-0.142-0.309-0.043-0.060-0.095-0.113-0.156-0.156-0.068-0.048-0.148-0.080-0.31-0.142l-9.011-3.504z"></path>
</symbol>
<symbol id="icon_-Baby-seat2" viewBox="0 0 32 32">
<title>icon_-Baby-seat2</title>
<path fill="#bdbdbe" style="fill: var(--color7, #bdbdbe)" d="M9.687 8.911c1.407 0 2.824-0.659 3.723-2.147 1.609-2.659-0.046-6.367-3.134-6.738-0.147-0.018-0.389-0.025-0.632-0.025-0.257 0-0.517 0.010-0.673 0.025-1.967 0.211-3.662 2.138-3.792 4.091-0.196 2.931 2.143 4.794 4.509 4.794z"></path>
<path fill="#bdbdbe" style="fill: var(--color7, #bdbdbe)" d="M23.425 18.188c-1.046 0-2.206 0.287-3.105 0.513-1.558 0.39-3.799 1.398-5.459 1.398-0.176 0-0.345-0.011-0.507-0.036-3.539-0.539-3.63-4.23-4.655-6.939-0.419-1.105-1.276-3.297-2.696-3.297-0.074 0-0.15 0.006-0.226 0.018-1.46 0.233-2.759 1.817-3.309 3.108-1.995 4.678-0.097 11.474 3.814 14.653-0.151 1.305-0.425 2.607-0.485 3.919 0.033 0.202 0.244 0.463 0.459 0.475h12.503c0.35-0.004 0.536-0.278 0.583-0.601l-0.425-3.107c0.603-0.367 1.253-0.642 1.854-1.016 2.305-1.432 4.619-3.925 4.35-6.856-0.16-1.747-1.332-2.234-2.694-2.234l-0.001 0.002zM20.438 25.112c-0.224 0.139-0.494 0.279-0.78 0.425-0.321 0.166-0.685 0.353-1.054 0.577l-1.425 0.867 0.227 1.658 0.112 0.816h-7.935c0.002-0.016 0.005-0.030 0.007-0.046 0.074-0.487 0.148-0.992 0.209-1.509l0.161-1.392-1.084-0.881c-1.475-1.199-2.666-3.183-3.268-5.444-0.603-2.263-0.535-4.533 0.188-6.228 0.223-0.525 0.606-1.008 0.929-1.303 0.152 0.278 0.351 0.708 0.603 1.376 0.183 0.486 0.344 1.055 0.513 1.657 0.352 1.253 0.752 2.675 1.546 3.92 1.067 1.672 2.609 2.673 4.585 2.973 0.282 0.042 0.581 0.064 0.887 0.064 1.529 0 3.143-0.535 4.567-1.007 0.561-0.187 1.092-0.362 1.505-0.465 0.737-0.184 1.746-0.438 2.492-0.438 0.068 0 0.127 0.003 0.176 0.006 0.098 1.714-1.633 3.422-3.164 4.372l0.002 0.001z"></path>
<path fill="#bdbdbe" style="fill: var(--color7, #bdbdbe)" d="M13.167 10.205c-0.864 0.034-1.842 0.492-2.429 1.125l-0.017 0.080c0.371 0.861 0.694 1.742 0.986 2.633 0.537 1.638 0.678 3.884 2.66 4.385 1.421 0.359 3.283-0.816 4.712-1.038l0.148-0.103-1.983-3.861 4.937-3.722c1.437-1.512 0.272-3.999-1.784-3.853-0.466 0.033-0.794 0.202-1.177 0.442-0.763 0.479-5.093 3.968-5.429 3.976-0.174 0.004-0.38-0.074-0.624-0.064h-0.001z"></path>
<path fill="#bdbdbe" style="fill: var(--color7, #bdbdbe)" d="M29.861 16.104c-0.502-0.411-0.923-0.468-1.534-0.582-1.451-0.272-3.070-0.498-4.539-0.687-0.408-0.052-0.765-0.122-1.124-0.122-0.304 0-0.611 0.051-0.949 0.206-0.863 0.396-1.18 1.35-1.616 2.124 0.775-0.061 1.553-0.316 2.339-0.399 0.303-0.032 0.611-0.050 0.918-0.050 1.64 0 3.269 0.507 3.984 2.165 0.094 0.217 0.31 1.19 0.357 1.234 0.080 0.072 0.261 0.099 0.477 0.099 0.415 0 0.962-0.103 1.168-0.198 1.496-0.68 1.8-2.739 0.518-3.79z"></path>
</symbol>
<symbol id="Group" viewBox="0 0 34 32">
<title>Group</title>
<path fill="none" stroke="#bdbdbe" style="stroke: var(--color7, #bdbdbe)" stroke-linejoin="round" stroke-linecap="butt" stroke-miterlimit="4" stroke-width="3.5556" d="M31.111 29.333v-26.667h-2.222l-6.667 7.407h-13.333l-4.444 4.444v14.815h26.667z"></path>
<path fill="none" stroke="#bdbdbe" style="stroke: var(--color7, #bdbdbe)" stroke-linejoin="round" stroke-linecap="round" stroke-miterlimit="4" stroke-width="3.5556" d="M8.889 10.074l7.407-7.407h13.333M8.148 4.148l-5.185 5.185M15.291 19.622c1.060-1.393 1.878-3.318 2.319-4.362 0.773 1.044 2.452 3.665 2.982 5.058 0.662 1.741-0.994 3.83-2.982 3.83s-3.644-2.785-2.319-4.527z"></path>
</symbol>
<symbol id="plus" viewBox="0 0 33 32">
<title>plus</title>
<path fill="none" stroke="#fefeff" style="stroke: var(--color1, #fefeff)" stroke-linejoin="round" stroke-linecap="round" stroke-miterlimit="4" stroke-width="2.6667" d="M16.667 6.667v18.667M7.333 16h18.667"></path>
</symbol>
<symbol id="minus" viewBox="0 0 33 32">
<title>minus</title>
<path fill="none" stroke="#fefeff" style="stroke: var(--color1, #fefeff)" stroke-linejoin="round" stroke-linecap="round" stroke-miterlimit="4" stroke-width="2.6667" d="M7.333 16h18.667"></path>
</symbol>
<symbol id="globe-05" viewBox="0 0 32 32">
<title>globe-05</title>
<path fill="none" stroke="#bdbdbe" style="stroke: var(--color7, #bdbdbe)" stroke-linejoin="round" stroke-linecap="round" stroke-miterlimit="4" stroke-width="3.2" d="M20 3.277c-1.263-0.397-2.606-0.61-4-0.61-7.364 0-13.333 5.97-13.333 13.333s5.97 13.333 13.333 13.333c7.364 0 13.333-5.969 13.333-13.333 0-2.287-0.576-4.44-1.591-6.321M22.666 7.667h0.007M14 29.184l0-2.938c0-0.159 0.057-0.313 0.161-0.434l3.314-3.867c0.272-0.318 0.188-0.805-0.176-1.013l-3.808-2.176c-0.103-0.059-0.189-0.145-0.248-0.248l-2.482-4.35c-0.129-0.226-0.379-0.357-0.638-0.334l-7.37 0.656M28 8c0 2.946-2.667 5.333-5.333 8-2.667-2.667-5.333-5.055-5.333-8s2.388-5.333 5.333-5.333c2.946 0 5.333 2.388 5.333 5.333zM23 7.667c0 0.184-0.149 0.333-0.333 0.333s-0.333-0.149-0.333-0.333c0-0.184 0.149-0.333 0.333-0.333s0.333 0.149 0.333 0.333z"></path>
</symbol>
<symbol id="infinity" viewBox="0 0 32 32">
<title>infinity</title>
<path fill="none" stroke="#fefeff" style="stroke: var(--color1, #fefeff)" stroke-linejoin="round" stroke-linecap="round" stroke-miterlimit="4" stroke-width="3.2" d="M24.237 10.667c6.795 0 6.795 10.667 0 10.667-6.793 0-9.511-10.667-16.985-10.667-6.113 0-6.113 10.667 0 10.667 7.475 0 10.192-10.667 16.987-10.667h-0.001z"></path>
</symbol>
<symbol id="Indicators" viewBox="0 0 32 32">
<title>Indicators</title>
<path fill="#b68867" style="fill: var(--color6, #b68867)" opacity="0.2" d="M32 16c0 8.837-7.163 16-16 16s-16-7.163-16-16c0-8.837 7.163-16 16-16s16 7.163 16 16z"></path>
<path fill="#b68867" style="fill: var(--color6, #b68867); stroke: var(--color1, #fefeff)" stroke="#fefeff" stroke-linejoin="miter" stroke-linecap="butt" stroke-miterlimit="4" stroke-width="1.3333" d="M24.667 16c0 4.786-3.88 8.667-8.667 8.667s-8.667-3.88-8.667-8.667c0-4.786 3.88-8.667 8.667-8.667s8.667 3.88 8.667 8.667z"></path>
</symbol>
<symbol id="Frame-151" viewBox="0 0 65 32">
<title>Frame-151</title>
<path fill="#b68867" style="fill: var(--color6, #b68867)" opacity="0.2" d="M40.667 8c0 4.418-3.582 8-8 8s-8-3.582-8-8c0-4.418 3.582-8 8-8s8 3.582 8 8z"></path>
<path fill="#b68867" style="fill: var(--color6, #b68867); stroke: var(--color1, #fefeff)" stroke="#fefeff" stroke-linejoin="miter" stroke-linecap="butt" stroke-miterlimit="4" stroke-width="0.6667" d="M37 8c0 2.393-1.94 4.333-4.333 4.333s-4.333-1.94-4.333-4.333c0-2.393 1.94-4.333 4.333-4.333s4.333 1.94 4.333 4.333z"></path>
<path fill="#919192" style="fill: var(--color8, #919192)" d="M7.479 29.333h-0.557l2.116-5.818h0.568l2.116 5.818h-0.557l-1.824-5.128h-0.040l-1.824 5.128zM7.88 27.103h2.886v0.477h-2.886v-0.477zM14.187 29.424c-0.358 0-0.671-0.095-0.94-0.284s-0.479-0.454-0.631-0.793c-0.15-0.339-0.224-0.734-0.224-1.185 0-0.449 0.075-0.842 0.224-1.179 0.152-0.339 0.363-0.602 0.634-0.79 0.271-0.189 0.586-0.284 0.946-0.284 0.265 0 0.486 0.047 0.662 0.142 0.176 0.093 0.317 0.208 0.423 0.347s0.188 0.273 0.247 0.403h0.045v-2.287h0.509v5.818h-0.494v-0.81h-0.060c-0.059 0.133-0.142 0.269-0.25 0.409-0.108 0.138-0.251 0.255-0.429 0.349-0.176 0.095-0.397 0.142-0.662 0.142zM14.246 28.961c0.282 0 0.523-0.077 0.722-0.23 0.199-0.155 0.35-0.368 0.455-0.639 0.106-0.273 0.159-0.585 0.159-0.938 0-0.348-0.052-0.656-0.156-0.923-0.104-0.269-0.256-0.479-0.455-0.631-0.199-0.153-0.44-0.23-0.724-0.23-0.292 0-0.538 0.080-0.739 0.239-0.199 0.157-0.35 0.37-0.455 0.639-0.102 0.269-0.153 0.571-0.153 0.906 0 0.339 0.052 0.645 0.156 0.918s0.256 0.49 0.455 0.651c0.201 0.159 0.446 0.239 0.736 0.239zM19.093 29.424c-0.358 0-0.671-0.095-0.94-0.284s-0.479-0.454-0.631-0.793c-0.15-0.339-0.224-0.734-0.224-1.185 0-0.449 0.075-0.842 0.224-1.179 0.151-0.339 0.363-0.602 0.634-0.79 0.271-0.189 0.586-0.284 0.946-0.284 0.265 0 0.486 0.047 0.662 0.142 0.176 0.093 0.317 0.208 0.423 0.347s0.188 0.273 0.247 0.403h0.045v-2.287h0.508v5.818h-0.494v-0.81h-0.060c-0.059 0.133-0.142 0.269-0.25 0.409-0.108 0.138-0.251 0.255-0.429 0.349-0.176 0.095-0.397 0.142-0.662 0.142zM19.152 28.961c0.282 0 0.523-0.077 0.722-0.23 0.199-0.155 0.35-0.368 0.455-0.639 0.106-0.273 0.159-0.585 0.159-0.938 0-0.348-0.052-0.656-0.156-0.923-0.104-0.269-0.256-0.479-0.455-0.631-0.199-0.153-0.44-0.23-0.724-0.23-0.292 0-0.538 0.080-0.739 0.239-0.199 0.157-0.35 0.37-0.455 0.639-0.102 0.269-0.153 0.571-0.153 0.906 0 0.339 0.052 0.645 0.156 0.918s0.256 0.49 0.455 0.651c0.201 0.159 0.446 0.239 0.736 0.239zM26.374 29.424c-0.377 0-0.71-0.096-1-0.287-0.288-0.191-0.513-0.456-0.676-0.793-0.163-0.339-0.244-0.73-0.244-1.173 0-0.447 0.081-0.84 0.244-1.179 0.163-0.341 0.388-0.606 0.676-0.795 0.29-0.191 0.623-0.287 1-0.287s0.709 0.096 0.997 0.287c0.288 0.191 0.513 0.456 0.676 0.795 0.165 0.339 0.247 0.732 0.247 1.179 0 0.443-0.081 0.834-0.244 1.173-0.163 0.337-0.389 0.601-0.679 0.793-0.288 0.191-0.62 0.287-0.997 0.287zM26.374 28.961c0.303 0 0.56-0.081 0.77-0.244s0.369-0.38 0.477-0.651c0.11-0.271 0.165-0.569 0.165-0.895s-0.055-0.625-0.165-0.898c-0.108-0.273-0.267-0.491-0.477-0.656s-0.467-0.247-0.77-0.247c-0.301 0-0.558 0.082-0.77 0.247-0.21 0.165-0.37 0.384-0.48 0.656-0.108 0.273-0.162 0.572-0.162 0.898s0.054 0.624 0.162 0.895c0.11 0.271 0.27 0.488 0.48 0.651s0.467 0.244 0.77 0.244zM29.91 26.606v2.727h-0.506v-4.364h0.491v0.685h0.045c0.102-0.223 0.261-0.402 0.477-0.537 0.218-0.136 0.487-0.205 0.807-0.205 0.294 0 0.551 0.062 0.773 0.185 0.223 0.121 0.397 0.3 0.52 0.537 0.125 0.237 0.188 0.527 0.188 0.872v2.827h-0.506v-2.795c0-0.358-0.1-0.641-0.301-0.849-0.199-0.208-0.466-0.313-0.801-0.313-0.229 0-0.433 0.049-0.611 0.148s-0.319 0.241-0.423 0.426c-0.102 0.184-0.153 0.402-0.153 0.656zM38.052 29.424c-0.407 0-0.759-0.095-1.057-0.284-0.297-0.191-0.527-0.455-0.69-0.793-0.161-0.339-0.241-0.729-0.241-1.17 0-0.439 0.080-0.83 0.241-1.17 0.163-0.343 0.387-0.611 0.673-0.804 0.288-0.195 0.62-0.293 0.997-0.293 0.237 0 0.465 0.044 0.685 0.131 0.22 0.085 0.417 0.217 0.591 0.395 0.176 0.176 0.315 0.399 0.418 0.668 0.102 0.267 0.153 0.583 0.153 0.949v0.25h-3.409v-0.446h2.892c0-0.28-0.057-0.532-0.17-0.756-0.112-0.225-0.268-0.403-0.469-0.534-0.199-0.131-0.429-0.196-0.69-0.196-0.277 0-0.52 0.074-0.73 0.222s-0.375 0.343-0.494 0.585c-0.117 0.242-0.177 0.508-0.179 0.795v0.267c0 0.347 0.060 0.65 0.179 0.909 0.121 0.258 0.293 0.457 0.514 0.599s0.484 0.213 0.787 0.213c0.206 0 0.387-0.032 0.543-0.097 0.157-0.064 0.289-0.151 0.395-0.259 0.108-0.11 0.189-0.23 0.244-0.361l0.48 0.156c-0.066 0.184-0.175 0.353-0.327 0.509-0.15 0.155-0.337 0.28-0.563 0.375-0.223 0.093-0.481 0.139-0.773 0.139zM41.131 24.97l1.125 1.861 1.125-1.861h0.588l-1.403 2.182 1.403 2.182h-0.588l-1.125-1.801-1.125 1.801h-0.585l1.386-2.182-1.386-2.182h0.585zM46.748 24.97v0.44h-2.082v-0.44h2.082zM45.317 23.924h0.509v4.27c0 0.182 0.031 0.325 0.094 0.429 0.062 0.102 0.144 0.175 0.244 0.219 0.1 0.042 0.207 0.062 0.321 0.062 0.066 0 0.123-0.004 0.17-0.011 0.047-0.009 0.089-0.019 0.125-0.028l0.108 0.457c-0.049 0.019-0.11 0.036-0.182 0.051-0.072 0.017-0.161 0.026-0.267 0.026-0.186 0-0.365-0.041-0.537-0.122-0.17-0.081-0.311-0.203-0.42-0.364s-0.165-0.361-0.165-0.599v-4.389zM47.897 29.333v-4.364h0.491v0.67h0.037c0.087-0.22 0.239-0.397 0.455-0.531 0.218-0.136 0.464-0.205 0.739-0.205 0.042 0 0.088 0.001 0.139 0.003s0.094 0.004 0.128 0.006v0.514c-0.023-0.004-0.062-0.009-0.119-0.017s-0.118-0.011-0.185-0.011c-0.227 0-0.43 0.048-0.608 0.145-0.176 0.095-0.315 0.226-0.418 0.395s-0.153 0.361-0.153 0.577v2.818h-0.506zM51.967 29.433c-0.263 0-0.504-0.051-0.722-0.153-0.218-0.104-0.391-0.254-0.52-0.449-0.129-0.197-0.193-0.436-0.193-0.716 0-0.216 0.041-0.398 0.122-0.545s0.197-0.269 0.347-0.364c0.15-0.095 0.327-0.169 0.531-0.224s0.43-0.098 0.676-0.128c0.244-0.030 0.451-0.057 0.619-0.080 0.17-0.023 0.3-0.059 0.389-0.108s0.134-0.129 0.134-0.239v-0.102c0-0.297-0.089-0.531-0.267-0.702-0.176-0.172-0.43-0.259-0.761-0.259-0.314 0-0.571 0.069-0.77 0.207-0.197 0.138-0.335 0.301-0.415 0.489l-0.48-0.173c0.098-0.239 0.235-0.429 0.409-0.571 0.174-0.144 0.369-0.247 0.585-0.31 0.216-0.064 0.435-0.097 0.656-0.097 0.167 0 0.34 0.022 0.52 0.065 0.182 0.044 0.35 0.119 0.506 0.227 0.155 0.106 0.281 0.255 0.378 0.446 0.097 0.189 0.145 0.43 0.145 0.722v2.963h-0.506v-0.69h-0.031c-0.061 0.129-0.151 0.254-0.27 0.375s-0.269 0.221-0.449 0.298c-0.18 0.078-0.391 0.116-0.634 0.116zM52.035 28.97c0.269 0 0.502-0.060 0.699-0.179s0.348-0.277 0.455-0.474c0.108-0.199 0.162-0.418 0.162-0.656v-0.631c-0.038 0.036-0.101 0.068-0.19 0.097-0.087 0.028-0.188 0.054-0.304 0.077-0.114 0.021-0.227 0.039-0.341 0.054s-0.216 0.028-0.307 0.040c-0.246 0.030-0.456 0.078-0.631 0.142s-0.308 0.153-0.401 0.267c-0.093 0.112-0.139 0.256-0.139 0.432 0 0.265 0.095 0.471 0.284 0.616 0.189 0.144 0.427 0.216 0.713 0.216zM58.133 25.927l-0.463 0.131c-0.045-0.131-0.11-0.249-0.193-0.355s-0.192-0.19-0.327-0.253c-0.133-0.062-0.297-0.094-0.494-0.094-0.295 0-0.538 0.070-0.727 0.21s-0.284 0.321-0.284 0.543c0 0.187 0.064 0.34 0.193 0.457 0.131 0.116 0.331 0.207 0.602 0.276l0.659 0.162c0.366 0.089 0.639 0.23 0.821 0.423 0.184 0.193 0.276 0.436 0.276 0.727 0 0.246-0.068 0.465-0.205 0.656s-0.327 0.342-0.571 0.452c-0.242 0.108-0.524 0.162-0.844 0.162-0.426 0-0.777-0.096-1.054-0.287-0.276-0.193-0.454-0.472-0.531-0.835l0.486-0.119c0.062 0.26 0.185 0.456 0.366 0.588 0.184 0.133 0.425 0.199 0.724 0.199 0.335 0 0.603-0.075 0.804-0.224 0.201-0.152 0.301-0.341 0.301-0.568 0-0.176-0.059-0.324-0.176-0.443-0.117-0.121-0.295-0.21-0.534-0.267l-0.713-0.17c-0.379-0.091-0.659-0.235-0.841-0.432s-0.273-0.441-0.273-0.733c0-0.241 0.065-0.452 0.196-0.633 0.131-0.184 0.311-0.328 0.54-0.432s0.491-0.156 0.784-0.156c0.4 0 0.719 0.091 0.957 0.273 0.241 0.18 0.414 0.428 0.52 0.744z"></path>
</symbol>
<symbol id="Ellipse-2" viewBox="0 0 35 32">
<title>Ellipse-2</title>
<path fill="#27c137" style="fill: var(--color9, #27c137); stroke: var(--color1, #fefeff)" stroke="#fefeff" stroke-linejoin="miter" stroke-linecap="butt" stroke-miterlimit="4" stroke-width="3.2" d="M32 16c0 7.953-6.447 14.4-14.4 14.4s-14.4-6.447-14.4-14.4c0-7.953 6.447-14.4 14.4-14.4s14.4 6.447 14.4 14.4z"></path>
</symbol>
<symbol id="users-01" viewBox="0 0 32 32">
<title>users-01</title>
<path fill="none" stroke="#fefeff" style="stroke: var(--color1, #fefeff)" stroke-linejoin="round" stroke-linecap="round" stroke-miterlimit="4" stroke-width="2" d="M29.334 28v-2.667c0-2.485-1.7-4.573-4-5.165M20.667 4.388c1.955 0.791 3.333 2.707 3.333 4.946s-1.379 4.154-3.333 4.946M22.667 28c0-2.485 0-3.728-0.406-4.708-0.541-1.307-1.58-2.345-2.886-2.886-0.98-0.406-2.223-0.406-4.708-0.406h-4c-2.485 0-3.728 0-4.708 0.406-1.307 0.541-2.345 1.58-2.886 2.886-0.406 0.98-0.406 2.223-0.406 4.708M18 9.333c0 2.946-2.388 5.333-5.333 5.333s-5.333-2.388-5.333-5.333c0-2.946 2.388-5.333 5.333-5.333s5.333 2.388 5.333 5.333z"></path>
</symbol>
<symbol id="luggage-01" viewBox="0 0 32 32">
<title>luggage-01</title>
<path fill="none" stroke="#fefeff" style="stroke: var(--color1, #fefeff)" stroke-linejoin="round" stroke-linecap="round" stroke-miterlimit="4" stroke-width="2" d="M10.666 29.333v-2.667M12.666 20v-10.667M21.333 29.333v-2.667M19.333 20v-10.667M11.733 26.667h8.533c2.24 0 3.36 0 4.216-0.436 0.753-0.384 1.364-0.995 1.748-1.748 0.436-0.856 0.436-1.976 0.436-4.216v-11.2c0-2.24 0-3.36-0.436-4.216-0.384-0.753-0.995-1.365-1.748-1.748-0.856-0.436-1.976-0.436-4.216-0.436h-8.533c-2.24 0-3.36 0-4.216 0.436-0.753 0.384-1.365 0.995-1.748 1.748-0.436 0.856-0.436 1.976-0.436 4.216v11.2c0 2.24 0 3.36 0.436 4.216 0.383 0.753 0.995 1.365 1.748 1.748 0.856 0.436 1.976 0.436 4.216 0.436z"></path>
</symbol>
<symbol id="tabler_manual-gearbox" viewBox="0 0 32 32">
<title>tabler_manual-gearbox</title>
<path fill="none" stroke="#fefeff" style="stroke: var(--color1, #fefeff)" stroke-linejoin="round" stroke-linecap="round" stroke-miterlimit="4" stroke-width="2" d="M6.667 10.667c-0.707 0-1.386-0.281-1.886-0.781s-0.781-1.178-0.781-1.886c0-0.707 0.281-1.386 0.781-1.886s1.178-0.781 1.886-0.781c0.707 0 1.386 0.281 1.886 0.781s0.781 1.178 0.781 1.886c0 0.707-0.281 1.386-0.781 1.886s-1.178 0.781-1.886 0.781zM6.667 10.667v10.667M16 10.667c-0.707 0-1.386-0.281-1.886-0.781s-0.781-1.178-0.781-1.886c0-0.707 0.281-1.386 0.781-1.886s1.178-0.781 1.886-0.781c0.707 0 1.386 0.281 1.886 0.781s0.781 1.178 0.781 1.886c0 0.707-0.281 1.386-0.781 1.886s-1.178 0.781-1.886 0.781zM16 10.667v10.667M6.667 21.333c0.707 0 1.386 0.281 1.886 0.781s0.781 1.178 0.781 1.886-0.281 1.385-0.781 1.886c-0.5 0.5-1.178 0.781-1.886 0.781s-1.386-0.281-1.886-0.781c-0.5-0.5-0.781-1.178-0.781-1.886s0.281-1.386 0.781-1.886c0.5-0.5 1.178-0.781 1.886-0.781zM16 21.333c0.707 0 1.386 0.281 1.886 0.781s0.781 1.178 0.781 1.886-0.281 1.385-0.781 1.886c-0.5 0.5-1.178 0.781-1.886 0.781s-1.386-0.281-1.886-0.781c-0.5-0.5-0.781-1.178-0.781-1.886s0.281-1.386 0.781-1.886c0.5-0.5 1.178-0.781 1.886-0.781zM22.667 8c0 0.707 0.281 1.386 0.781 1.886s1.178 0.781 1.886 0.781c0.707 0 1.385-0.281 1.886-0.781s0.781-1.178 0.781-1.886-0.281-1.386-0.781-1.886c-0.5-0.5-1.178-0.781-1.886-0.781s-1.386 0.281-1.886 0.781c-0.5 0.5-0.781 1.178-0.781 1.886z"></path>
<path fill="none" stroke="#fefeff" style="stroke: var(--color1, #fefeff)" stroke-linejoin="round" stroke-linecap="round" stroke-miterlimit="4" stroke-width="2" d="M25.334 10.667v2.667c0 0.707-0.281 1.386-0.781 1.886s-1.178 0.781-1.886 0.781h-16"></path>
</symbol>
<symbol id="icon-car-doors" viewBox="0 0 32 32">
<title>icon-car-doors</title>
<path fill="#fefeff" style="fill: var(--color1, #fefeff)" d="M23.852 11.999v5.394c1.491 1.386 3.027 2.742 4.524 4.128 0.351 0.324 1.347 1.148 1.524 1.492 0.417 0.813-0.557 1.655-1.419 1.218-1.536-1.319-2.995-2.721-4.5-4.072l-0.128-0.058v6.485c0 1.636-2.119 3.394-3.903 3.371-2.581-0.106-5.289 0.136-7.855 0-1.696-0.090-3.212-1.1-3.744-2.581-0.062-0.174-0.201-0.628-0.201-0.79v-6.485l-0.128 0.058-4.465 4.065c-0.985 0.487-2.035-0.565-1.317-1.397l5.91-5.394v-5.433l-0.128 0.058-4.492 4.079c-0.877 0.423-1.873-0.432-1.412-1.25 1.948-1.888 4.018-3.682 6.011-5.536 0.068-2.563-0.369-4.792 1.499-6.928 2.019-2.31 4.696-2.545 7.761-2.379 3.025 0.164 5.679 2.206 6.308 4.914 0.333 1.436 0.056 2.936 0.179 4.394l5.74 5.2c0.907 0.776 0.044 2.056-1.106 1.594-1.555-1.312-3.012-2.732-4.527-4.086l-0.128-0.058-0-0zM21.803 8.65c-0.041-1.714 0.29-3.303-0.818-4.803-1.476-1.997-3.859-2.083-6.285-1.935-2.122 0.129-3.956 1.568-4.396 3.466-0.241 1.040-0.040 2.208-0.106 3.272 0.881-0.656 1.898-1.072 3.048-1.131 1.938-0.1 4.026 0.043 5.97 0.046 0.978 0.121 1.83 0.528 2.587 1.085zM13.218 9.401c-1.828 0.216-2.922 1.765-3.023 3.356-0.175 2.762 0.137 5.677 0 8.455 0.083 0.899 0.665 1.797 1.731 1.887l8.151 0.002c1.029-0.091 1.652-0.967 1.728-1.85-0.159-2.803 0.205-5.791 0-8.572-0.118-1.592-1.327-3.181-3.179-3.291-1.753-0.105-3.642 0.073-5.409 0.013h0zM21.804 24.542c-0.545 0.236-1.073 0.398-1.683 0.43-2.706 0.142-5.56-0.112-8.282 0-0.581-0.038-1.121-0.206-1.641-0.43v1.928c0 0.862 1.161 1.567 2.025 1.618 2.456 0.146 5.083-0.115 7.557 0 0.878 0.042 2.025-0.852 2.025-1.657v-1.889l-0-0z"></path>
</symbol>
<symbol id="check-circle-broken-1" viewBox="0 0 32 32">
<title>check-circle-broken-1</title>
<path fill="none" stroke="#fefeff" style="stroke: var(--color1, #fefeff)" stroke-linejoin="round" stroke-linecap="round" stroke-miterlimit="4" stroke-width="2" d="M29.334 14.781v1.227c-0.002 2.875-0.933 5.673-2.654 7.976s-4.141 3.988-6.899 4.803c-2.757 0.815-5.704 0.717-8.401-0.279s-5-2.838-6.565-5.25c-1.565-2.412-2.308-5.265-2.119-8.134s1.301-5.6 3.169-7.786c1.868-2.186 4.393-3.709 7.197-4.343s5.739-0.344 8.365 0.826M29.334 5.333l-13.333 13.347-4-4"></path>
</symbol>
<symbol id="_1" viewBox="0 0 267 32">
<title>_1</title>
<path fill="#fefeff" style="fill: var(--color1, #fefeff)" d="M101.147 9.953h-23.578v4.321h23.578c-0.055 0.17 0.171 0.374 0.171 0.433v6.911c0 0.017-0.239 0.26-0.256 0.26h-23.493v4.321h23.578v7.775h-31.097c0.055-0.17-0.171-0.375-0.171-0.433v-30.932c0-0.017 0.239-0.26 0.257-0.26h30.926c0.017 0 0.256 0.239 0.256 0.26v6.911c0 0.056-0.226 0.264-0.171 0.433z"></path>
<path fill="#fefeff" style="fill: var(--color1, #fefeff)" d="M262.185 2.349c1.655 0.236 3.655 2.157 4.137 3.762 0.444 1.477 0.404 9.207 0.201 10.993-0.238 2.098-2.283 4.401-4.379 4.73-0.626 0.097-1.269-0.042-1.844 0.042-0.236 0.035-0.293-0.097-0.252 0.26l5.98 11.839h-7.947l-6.663-12.095h-7.605v11.665c0 0.055-0.226 0.264-0.171 0.433h-7.348v-31.629h25.89zM259.022 9.953h-15.205v4.321h15.205v-4.321z"></path>
<path fill="#fefeff" style="fill: var(--color1, #fefeff)" d="M187.945 12.717h-7.348v-2.764h-17.257v16.243h17.257v-2.764h7.348c0.636 4.421 0.331 9.834-5.061 10.521-6.964-0.333-14.441 0.517-21.345 0.028-3.511-0.246-5.501-2.462-5.724-5.961-0.427-6.672 0.318-13.826 0.031-20.55 0.239-2.531 2.267-4.889 4.842-5.125 7.159-0.662 15.304 0.517 22.566 0 5.074 0.843 5.292 6.173 4.692 10.375v-0.003z"></path>
<path fill="#fefeff" style="fill: var(--color1, #fefeff)" d="M31.268 9.953h-23.749v4.321h23.749c-0.055 0.17 0.171 0.374 0.171 0.433v6.911c0 0.017-0.239 0.26-0.257 0.26h-23.407c-0.017 0-0.256 0.239-0.256 0.26v11.835h-7.262c-0.017 0-0.256-0.239-0.256-0.26v-31.105c0-0.017 0.239-0.26 0.256-0.26h30.926c0.017 0 0.257 0.239 0.257 0.26v6.911c0 0.056-0.226 0.264-0.171 0.433z"></path>
<path fill="#fefeff" style="fill: var(--color1, #fefeff)" d="M115.501 2.349c2.075 3.395 4.407 6.637 6.749 9.845l7.006-9.845h8.972l-10.709 15.809 10.709 15.813h-8.972l-7.006-10.018-7.006 10.018h-8.715c-0.021 0-0.342-0.25-0.174-0.343l10.654-15.608-10.736-15.671h9.228z"></path>
<path fill="#fefeff" style="fill: var(--color1, #fefeff)" d="M193.326 33.971l14.176-31.456 8.555-0.18 0.267 0.121 14.773 31.164c0.151 0.108-0.16 0.354-0.185 0.354h-7.945l-11.020-22.637-10.677 22.637-7.943-0.004z"></path>
<path fill="#fefeff" style="fill: var(--color1, #fefeff)" d="M43.912 2.349v23.847h20.761c0.017 0 0.257 0.239 0.257 0.26v7.258c0 0.017-0.239 0.26-0.257 0.26h-28.276v-31.626h7.515z"></path>
<path fill="#fefeff" style="fill: var(--color1, #fefeff)" d="M143.35 33.971v-31.622h7.262c0.017 0 0.256 0.239 0.256 0.26v31.102c0 0.017-0.239 0.26-0.256 0.26h-7.262z"></path>
</symbol>
<symbol id="check-circle-broken" viewBox="0 0 32 32">
<title>check-circle-broken</title>
<path fill="none" stroke="#fefeff" style="stroke: var(--color1, #fefeff)" stroke-linejoin="round" stroke-linecap="round" stroke-miterlimit="4" stroke-width="2" d="M29.334 14.781v1.227c-0.002 2.875-0.933 5.673-2.654 7.976s-4.141 3.988-6.899 4.803c-2.757 0.815-5.704 0.717-8.401-0.279s-5-2.838-6.565-5.25c-1.565-2.412-2.308-5.265-2.119-8.134s1.301-5.6 3.169-7.786c1.868-2.186 4.393-3.709 7.197-4.343s5.739-0.344 8.365 0.826M29.334 5.333l-13.333 13.347-4-4"></path>
</symbol>
<symbol id="menu-01" viewBox="0 0 32 32">
<title>menu-01</title>
<path fill="none" stroke="#bdbdbe" style="stroke: var(--color7, #bdbdbe)" stroke-linejoin="round" stroke-linecap="round" stroke-miterlimit="4" stroke-width="2" d="M4 16h24M4 8h24M4 24h24"></path>
</symbol>
<symbol id="_11" viewBox="0 0 267 32">
<title>_11</title>
<path fill="#fefeff" style="fill: var(--color1, #fefeff)" d="M101.147 9.953h-23.578v4.321h23.578c-0.055 0.17 0.171 0.374 0.171 0.433v6.911c0 0.017-0.239 0.26-0.256 0.26h-23.493v4.321h23.578v7.775h-31.097c0.055-0.17-0.171-0.375-0.171-0.433v-30.932c0-0.017 0.239-0.26 0.257-0.26h30.926c0.017 0 0.256 0.239 0.256 0.26v6.911c0 0.056-0.226 0.264-0.171 0.433z"></path>
<path fill="#fefeff" style="fill: var(--color1, #fefeff)" d="M262.185 2.349c1.655 0.236 3.655 2.157 4.137 3.762 0.444 1.477 0.404 9.207 0.201 10.993-0.238 2.098-2.283 4.401-4.379 4.73-0.626 0.097-1.269-0.042-1.844 0.042-0.236 0.035-0.293-0.097-0.252 0.26l5.98 11.839h-7.947l-6.663-12.095h-7.605v11.665c0 0.055-0.226 0.264-0.171 0.433h-7.348v-31.629h25.89zM259.022 9.953h-15.205v4.321h15.205v-4.321z"></path>
<path fill="#fefeff" style="fill: var(--color1, #fefeff)" d="M187.945 12.717h-7.348v-2.764h-17.257v16.243h17.257v-2.764h7.348c0.636 4.421 0.331 9.834-5.061 10.521-6.964-0.333-14.441 0.517-21.345 0.028-3.511-0.246-5.501-2.462-5.724-5.961-0.427-6.672 0.318-13.826 0.031-20.55 0.239-2.531 2.267-4.889 4.842-5.125 7.159-0.662 15.304 0.517 22.566 0 5.074 0.843 5.292 6.173 4.692 10.375v-0.003z"></path>
<path fill="#fefeff" style="fill: var(--color1, #fefeff)" d="M31.268 9.953h-23.749v4.321h23.749c-0.055 0.17 0.171 0.374 0.171 0.433v6.911c0 0.017-0.239 0.26-0.257 0.26h-23.407c-0.017 0-0.256 0.239-0.256 0.26v11.835h-7.262c-0.017 0-0.256-0.239-0.256-0.26v-31.105c0-0.017 0.239-0.26 0.256-0.26h30.926c0.017 0 0.257 0.239 0.257 0.26v6.911c0 0.056-0.226 0.264-0.171 0.433z"></path>
<path fill="#fefeff" style="fill: var(--color1, #fefeff)" d="M115.501 2.349c2.075 3.395 4.407 6.637 6.749 9.845l7.006-9.845h8.972l-10.709 15.809 10.709 15.813h-8.972l-7.006-10.018-7.006 10.018h-8.715c-0.021 0-0.342-0.25-0.174-0.343l10.654-15.608-10.736-15.671h9.228z"></path>
<path fill="#fefeff" style="fill: var(--color1, #fefeff)" d="M193.326 33.971l14.176-31.456 8.555-0.18 0.267 0.121 14.773 31.164c0.151 0.108-0.16 0.354-0.185 0.354h-7.945l-11.020-22.637-10.677 22.637-7.943-0.004z"></path>
<path fill="#fefeff" style="fill: var(--color1, #fefeff)" d="M43.912 2.349v23.847h20.761c0.017 0 0.257 0.239 0.257 0.26v7.258c0 0.017-0.239 0.26-0.257 0.26h-28.276v-31.626h7.515z"></path>
<path fill="#fefeff" style="fill: var(--color1, #fefeff)" d="M143.35 33.971v-31.622h7.262c0.017 0 0.256 0.239 0.256 0.26v31.102c0 0.017-0.239 0.26-0.256 0.26h-7.262z"></path>
</symbol>
</defs>
</svg>
